# 
# Wavefront OBJ file
# Converted by the DEEP Exploration Deep Exploration 4.1.20.1005 Release
# Right Hemisphere, LTD
# http://www.righthemisphere.com/
# 
mtllib RotorDisc.mtl
# object RotorDisc
g RotorDisc
v 15.9861 3.17983 -0.129088
v 15.0586 6.23746 -0.129088
v 13.5524 9.0554 -0.129088
v 11.5253 11.5253 -0.129088
v 9.0554 13.5524 -0.129088
v 6.23747 15.0586 -0.129088
v 3.17984 15.9861 -0.129088
v 2.44116e-006 16.2993 -0.129088
v -3.17983 15.9861 -0.129088
v -6.23747 15.0586 -0.129088
v -9.0554 13.5524 -0.129088
v -11.5253 11.5253 -0.129088
v -13.5524 9.0554 -0.129088
v -15.0586 6.23747 -0.129088
v -15.9861 3.17984 -0.129088
v -16.2993 1.53181e-006 -0.129088
v -15.9861 -3.17983 -0.129088
v -15.0586 -6.23747 -0.129088
v -13.5524 -9.0554 -0.129088
v -11.5253 -11.5253 -0.129088
v -9.0554 -13.5524 -0.129088
v -6.23747 -15.0586 -0.129088
v -3.17984 -15.9861 -0.129088
v -4.32926e-007 -16.2993 -0.129088
v 3.17983 -15.9861 -0.129088
v 6.23747 -15.0586 -0.129088
v 9.0554 -13.5524 -0.129088
v 11.5253 -11.5253 -0.129088
v 13.5524 -9.05541 -0.129088
v 15.0586 -6.23747 -0.129088
v 15.9861 -3.17984 -0.129088
v 16.2993 -7.90409e-018 -0.129088
v 15.9861 3.17983 0.129088
v 15.0586 6.23746 0.129088
v 13.5524 9.0554 0.129088
v 11.5253 11.5253 0.129088
v 9.0554 13.5524 0.129088
v 6.23747 15.0586 0.129088
v 3.17984 15.9861 0.129088
v 2.44116e-006 16.2993 0.129088
v -3.17983 15.9861 0.129088
v -6.23747 15.0586 0.129088
v -9.0554 13.5524 0.129088
v -11.5253 11.5253 0.129088
v -13.5524 9.0554 0.129088
v -15.0586 6.23747 0.129088
v -15.9861 3.17984 0.129088
v -16.2993 1.53181e-006 0.129088
v -15.9861 -3.17983 0.129088
v -15.0586 -6.23747 0.129088
v -13.5524 -9.0554 0.129088
v -11.5253 -11.5253 0.129088
v -9.0554 -13.5524 0.129088
v -6.23747 -15.0586 0.129088
v -3.17984 -15.9861 0.129088
v -4.32926e-007 -16.2993 0.129088
v 3.17983 -15.9861 0.129088
v 6.23747 -15.0586 0.129088
v 9.0554 -13.5524 0.129088
v 11.5253 -11.5253 0.129088
v 13.5524 -9.05541 0.129088
v 15.0586 -6.23747 0.129088
v 15.9861 -3.17984 0.129088
v 16.2993 7.90409e-018 0.129088
v 0 -7.90409e-018 -0.129088
v 0 7.90409e-018 0.129088
# 66 verticies
vt 0.990392 0.597545
vt 0.961939 0.691342
vt 0.915735 0.777785
vt 0.853553 0.853553
vt 0.777785 0.915735
vt 0.691342 0.96194
vt 0.597545 0.990393
vt 0.5 1
vt 0.402455 0.990393
vt 0.308658 0.96194
vt 0.222215 0.915735
vt 0.146447 0.853554
vt 0.0842652 0.777785
vt 0.0380602 0.691342
vt 0.00960737 0.597545
vt 0 0.5
vt 0.00960732 0.402455
vt 0.0380602 0.308658
vt 0.0842651 0.222215
vt 0.146447 0.146447
vt 0.222215 0.0842652
vt 0.308658 0.0380602
vt 0.402455 0.00960732
vt 0.5 0
vt 0.597545 0.00960732
vt 0.691342 0.0380602
vt 0.777785 0.0842651
vt 0.853553 0.146447
vt 0.915735 0.222215
vt 0.96194 0.308658
vt 0.990393 0.402455
vt 1 0.5
vt 0.5 0.5
# 33 texture verticies
vn 0.980785 0.195093 -1.72105e-006
vn 0.92388 0.382683 -7.67585e-007
vn 0.83147 0.55557 2.78456e-007
vn 0.707107 0.707107 5.06985e-007
vn 0.555571 0.831469 -1.13736e-008
vn 0.382684 0.923879 -2.0559e-007
vn 0.195091 0.980785 -7.25669e-008
vn 4.94118e-007 1 -2.0472e-009
vn -0.19509 0.980785 1.23467e-007
vn -0.382683 0.92388 9.1276e-008
vn -0.55557 0.83147 2.82216e-007
vn -0.707107 0.707107 4.18383e-007
vn -0.831469 0.555571 2.62641e-007
vn -0.923879 0.382684 -7.0754e-007
vn -0.980785 0.195091 -1.85447e-006
vn -1 2.99465e-007 -1.15431e-006
vn -0.980785 -0.19509 2.76899e-007
vn -0.92388 -0.382683 3.03064e-007
vn -0.83147 -0.55557 -7.17037e-007
vn -0.707107 -0.707107 -9.62329e-008
vn -0.55557 -0.83147 3.38636e-007
vn -0.382684 -0.923879 -1.78272e-007
vn -0.19509 -0.980785 -3.92085e-008
vn -2.69519e-007 -1 -4.86808e-009
vn 0.19509 -0.980785 6.88828e-008
vn 0.382683 -0.92388 -1.40085e-007
vn 0.55557 -0.83147 -1.59041e-007
vn 0.707107 -0.707107 5.28152e-007
vn 0.83147 -0.55557 7.66069e-007
vn 0.923879 -0.382684 1.00696e-006
vn 0.980785 -0.195091 5.73028e-007
vn 1 2.47808e-006 -1.20275e-006
vn 0 1.41112e-009 -1
vn 0 -2.04399e-010 -1
vn 0 -1.01997e-010 -1
vn 0 1.05298e-009 -1
vn 0 6.84222e-010 -1
vn 0 8.45782e-010 -1
vn 0 -3.14833e-011 -1
vn 0 -3.29948e-010 -1
vn 0 1.55574e-010 -1
vn 0 -6.83101e-010 -1
vn 0 -1.33471e-009 -1
vn 0 -8.34661e-010 -1
vn 0 -9.02545e-010 -1
vn 0 -8.84585e-010 -1
vn 0 1.03181e-009 -1
vn 0 -1.89772e-010 -1
vn 0 -3.93338e-011 -1
vn 0 1.33269e-009 -1
vn 0 -5.08488e-010 -1
vn 0 -3.76009e-010 -1
vn 0 -1.57686e-010 -1
vn 0 -5.44904e-010 -1
vn 0 6.90927e-011 -1
vn 0 5.03255e-010 -1
vn 0 -2.07925e-010 -1
vn 0 6.12629e-012 -1
vn 0 4.69684e-010 -1
vn 0 -6.79721e-011 -1
vn 0 -8.78521e-014 -1
vn 0 -9.32675e-011 -1
vn 0 -2.31054e-009 -1
vn 0 -1.16417e-009 -1
vn 0 3.9332e-011 -1
vn 0 -3.93339e-011 1
vn 0 2.04399e-010 1
vn 0 1.6017e-011 1
vn 0 -1.41112e-009 1
vn 0 -1.05298e-009 1
vn 0 -6.84222e-010 1
vn 0 -8.45782e-010 1
vn 0 -5.43529e-010 1
vn 0 -3.34555e-010 1
vn 0 -2.45064e-010 1
vn 0 -4.66923e-010 1
vn 0 1.84684e-010 1
vn 0 8.34661e-010 1
vn 0 9.02545e-010 1
vn 0 8.84585e-010 1
vn 0 -1.03181e-009 1
vn 0 1.89773e-010 1
vn 0 3.93343e-011 1
vn 0 -1.33269e-009 1
vn 0 5.08488e-010 1
vn 0 3.76009e-010 1
vn 0 1.57686e-010 1
vn 0 5.44904e-010 1
vn 0 5.05919e-010 1
vn 0 -6.44111e-011 1
vn 0 7.17566e-011 1
vn 0 -6.12645e-012 1
vn 0 -4.69684e-010 1
vn 0 6.79721e-011 1
vn 0 8.78244e-014 1
vn 0 9.32673e-011 1
vn 0 2.31054e-009 1
vn 0 1.16417e-009 1
# 98 normals
usemtl RotorDiscLambert
f  1/1/1 2/2/2 34/2/2 33/1/1
f  2/2/2 3/3/3 35/3/3 34/2/2
f  3/3/3 4/4/4 36/4/4 35/3/3
f  4/4/4 5/5/5 37/5/5 36/4/4
f  5/5/5 6/6/6 38/6/6 37/5/5
f  6/6/6 7/7/7 39/7/7 38/6/6
f  7/7/7 8/8/8 40/8/8 39/7/7
f  8/8/8 9/9/9 41/9/9 40/8/8
f  9/9/9 10/10/10 42/10/10 41/9/9
f  10/10/10 11/11/11 43/11/11 42/10/10
f  11/11/11 12/12/12 44/12/12 43/11/11
f  12/12/12 13/13/13 45/13/13 44/12/12
f  13/13/13 14/14/14 46/14/14 45/13/13
f  14/14/14 15/15/15 47/15/15 46/14/14
f  15/15/15 16/16/16 48/16/16 47/15/15
f  16/16/16 17/17/17 49/17/17 48/16/16
f  17/17/17 18/18/18 50/18/18 49/17/17
f  18/18/18 19/19/19 51/19/19 50/18/18
f  19/19/19 20/20/20 52/20/20 51/19/19
f  20/20/20 21/21/21 53/21/21 52/20/20
f  21/21/21 22/22/22 54/22/22 53/21/21
f  22/22/22 23/23/23 55/23/23 54/22/22
f  23/23/23 24/24/24 56/24/24 55/23/23
f  24/24/24 25/25/25 57/25/25 56/24/24
f  25/25/25 26/26/26 58/26/26 57/25/25
f  26/26/26 27/27/27 59/27/27 58/26/26
f  27/27/27 28/28/28 60/28/28 59/27/27
f  28/28/28 29/29/29 61/29/29 60/28/28
f  29/29/29 30/30/30 62/30/30 61/29/29
f  30/30/30 31/31/31 63/31/31 62/30/30
f  31/31/31 32/32/32 64/32/32 63/31/31
f  32/32/32 1/1/1 33/1/1 64/32/32
f  2/2/33 1/1/34 65/33/35
f  3/3/36 2/2/33 65/33/35
f  4/4/37 3/3/36 65/33/35
f  5/5/38 4/4/37 65/33/35
f  6/6/39 5/5/38 65/33/35
f  7/7/40 6/6/39 65/33/35
f  8/8/41 7/7/40 65/33/35
f  9/9/42 8/8/41 65/33/35
f  10/10/43 9/9/42 65/33/35
f  11/11/44 10/10/43 65/33/35
f  12/12/45 11/11/44 65/33/35
f  13/13/46 12/12/45 65/33/35
f  14/14/47 13/13/46 65/33/35
f  15/15/48 14/14/47 65/33/35
f  16/16/49 15/15/48 65/33/35
f  17/17/50 16/16/49 65/33/35
f  18/18/51 17/17/50 65/33/35
f  19/19/52 18/18/51 65/33/35
f  20/20/53 19/19/52 65/33/35
f  21/21/54 20/20/53 65/33/35
f  22/22/55 21/21/54 65/33/35
f  23/23/56 22/22/55 65/33/35
f  24/24/57 23/23/56 65/33/35
f  25/25/58 24/24/57 65/33/35
f  26/26/59 25/25/58 65/33/35
f  27/27/60 26/26/59 65/33/35
f  28/28/61 27/27/60 65/33/35
f  29/29/62 28/28/61 65/33/35
f  30/30/63 29/29/62 65/33/35
f  31/31/64 30/30/63 65/33/35
f  32/32/65 31/31/64 65/33/35
f  1/1/34 32/32/65 65/33/35
f  33/1/66 34/2/67 66/33/68
f  34/2/67 35/3/69 66/33/68
f  35/3/69 36/4/70 66/33/68
f  36/4/70 37/5/71 66/33/68
f  37/5/71 38/6/72 66/33/68
f  38/6/72 39/7/73 66/33/68
f  39/7/73 40/8/74 66/33/68
f  40/8/74 41/9/75 66/33/68
f  41/9/75 42/10/76 66/33/68
f  42/10/76 43/11/77 66/33/68
f  43/11/77 44/12/78 66/33/68
f  44/12/78 45/13/79 66/33/68
f  45/13/79 46/14/80 66/33/68
f  46/14/80 47/15/81 66/33/68
f  47/15/81 48/16/82 66/33/68
f  48/16/82 49/17/83 66/33/68
f  49/17/83 50/18/84 66/33/68
f  50/18/84 51/19/85 66/33/68
f  51/19/85 52/20/86 66/33/68
f  52/20/86 53/21/87 66/33/68
f  53/21/87 54/22/88 66/33/68
f  54/22/88 55/23/89 66/33/68
f  55/23/89 56/24/90 66/33/68
f  56/24/90 57/25/91 66/33/68
f  57/25/91 58/26/92 66/33/68
f  58/26/92 59/27/93 66/33/68
f  59/27/93 60/28/94 66/33/68
f  60/28/94 61/29/95 66/33/68
f  61/29/95 62/30/96 66/33/68
f  62/30/96 63/31/97 66/33/68
f  63/31/97 64/32/98 66/33/68
f  64/32/98 33/1/66 66/33/68
